<svg width="37" height="46" viewBox="0 0 37 46" fill="none" xmlns="http://www.w3.org/2000/svg">
<g filter="url(#filter0_d)">
<path d="M18.151 6C22.61 6 27 8.07118 27 13.0253C27 17.5938 21.8093 19.3507 20.6946 21.0015C19.8577 22.2295 20.1372 23.9549 17.8378 23.9549C16.34 23.9549 15.6083 22.7261 15.6083 21.6018C15.6083 17.418 21.7033 16.4711 21.7033 13.0261C21.7033 11.1299 20.4521 10.0055 18.3607 10.0055C13.9016 10.0055 15.6428 14.6421 12.2657 14.6421C11.0465 14.6421 10 13.9041 10 12.4996C9.99918 9.0537 13.9 6 18.151 6ZM17.9776 26.2359C19.5428 26.2359 20.8343 27.5343 20.8343 29.1179C20.8343 30.7016 19.5453 32 17.9776 32C16.4098 32 15.12 30.7032 15.12 29.1179C15.12 27.5351 16.4098 26.2359 17.9776 26.2359Z" fill="white"/>
</g>
<defs>
<filter id="filter0_d" x="0" y="0" width="37" height="46" filterUnits="userSpaceOnUse" color-interpolation-filters="sRGB">
<feFlood flood-opacity="0" result="BackgroundImageFix"/>
<feColorMatrix in="SourceAlpha" type="matrix" values="0 0 0 0 0 0 0 0 0 0 0 0 0 0 0 0 0 0 127 0"/>
<feOffset dy="4"/>
<feGaussianBlur stdDeviation="5"/>
<feColorMatrix type="matrix" values="0 0 0 0 0 0 0 0 0 0 0 0 0 0 0 0 0 0 0.25 0"/>
<feBlend mode="normal" in2="BackgroundImageFix" result="effect1_dropShadow"/>
<feBlend mode="normal" in="SourceGraphic" in2="effect1_dropShadow" result="shape"/>
</filter>
</defs>
</svg>
