<svg width="43" height="43" viewBox="0 0 43 43" fill="none" xmlns="http://www.w3.org/2000/svg">
<g filter="url(#filter0_d)">
<path d="M29.3233 9.32917C27.2692 7.275 24.45 6 21.3192 6C15.0575 6 10 11.0717 10 17.3333C10 23.595 15.0575 28.6667 21.3192 28.6667C26.6033 28.6667 31.0092 25.0542 32.27 20.1667H29.3233C28.1617 23.4675 25.0167 25.8333 21.3192 25.8333C16.63 25.8333 12.8192 22.0225 12.8192 17.3333C12.8192 12.6442 16.63 8.83333 21.3192 8.83333C23.6708 8.83333 25.7675 9.81083 27.2975 11.355L22.7358 15.9167H32.6525V6L29.3233 9.32917Z" fill="white"/>
</g>
<defs>
<filter id="filter0_d" x="0" y="0" width="42.6525" height="42.6667" filterUnits="userSpaceOnUse" color-interpolation-filters="sRGB">
<feFlood flood-opacity="0" result="BackgroundImageFix"/>
<feColorMatrix in="SourceAlpha" type="matrix" values="0 0 0 0 0 0 0 0 0 0 0 0 0 0 0 0 0 0 127 0"/>
<feOffset dy="4"/>
<feGaussianBlur stdDeviation="5"/>
<feColorMatrix type="matrix" values="0 0 0 0 0 0 0 0 0 0 0 0 0 0 0 0 0 0 0.25 0"/>
<feBlend mode="normal" in2="BackgroundImageFix" result="effect1_dropShadow"/>
<feBlend mode="normal" in="SourceGraphic" in2="effect1_dropShadow" result="shape"/>
</filter>
</defs>
</svg>
