<svg width="28" height="28" viewBox="0 0 28 28" fill="none" xmlns="http://www.w3.org/2000/svg">
<path d="M15.015 17.5817L12.0516 14.6533L12.0866 14.6183C14.1166 12.355 15.5633 9.75334 16.415 7H19.8333V4.66667H11.6666V2.33334H9.33329V4.66667H1.16663V6.98834H14.1983C13.4166 9.24 12.18 11.375 10.5 13.2417C9.41496 12.04 8.51663 10.7217 7.80496 9.33334H5.47163C6.32329 11.235 7.48996 13.0317 8.94829 14.6533L3.00996 20.51L4.66663 22.1667L10.5 16.3333L14.1283 19.9617L15.015 17.5817ZM21.5833 11.6667H19.25L14 25.6667H16.3333L17.64 22.1667H23.1816L24.5 25.6667H26.8333L21.5833 11.6667ZM18.5266 19.8333L20.4166 14.7817L22.3066 19.8333H18.5266Z" fill="#5E4FBA"/>
</svg>
